HIERARCHY
ROOT Hips
{
	OFFSET 0.00000 0.00000 0.00000
	CHANNELS 6 Xposition Yposition Zposition Zrotation Yrotation Xrotation 
	JOINT LHipJoint
	{
		OFFSET 0 0 0
		CHANNELS 3 Zrotation Yrotation Xrotation
		JOINT LeftUpLeg
		{
			OFFSET 1.36443 -1.53315 0.80540
			CHANNELS 3 Zrotation Yrotation Xrotation
			JOINT LeftLeg
			{
				OFFSET 2.27494 -6.25036 0.00000
				CHANNELS 3 Zrotation Yrotation Xrotation
				JOINT LeftFoot
				{
					OFFSET 2.17461 -5.97470 0.00000
					CHANNELS 3 Zrotation Yrotation Xrotation
					JOINT LeftToeBase
					{
						OFFSET 0.22144 -0.60841 2.08966
						CHANNELS 3 Zrotation Yrotation Xrotation
						End Site
						{
							OFFSET 0.00000 -0.00000 1.09206
						}
					}
				}
			}
		}
	}
	JOINT RHipJoint
	{
		OFFSET 0 0 0
		CHANNELS 3 Zrotation Yrotation Xrotation
		JOINT RightUpLeg
		{
			OFFSET -1.29957 -1.53315 0.80539
			CHANNELS 3 Zrotation Yrotation Xrotation
			JOINT RightLeg
			{
				OFFSET -2.23917 -6.15209 0.00000
				CHANNELS 3 Zrotation Yrotation Xrotation
				JOINT RightFoot
				{
					OFFSET -2.18029 -5.99030 0.00000
					CHANNELS 3 Zrotation Yrotation Xrotation
					JOINT RightToeBase
					{
						OFFSET -0.22354 -0.61416 1.89975
						CHANNELS 3 Zrotation Yrotation Xrotation
						End Site
						{
							OFFSET -0.00000 -0.00000 1.00221
						}
					}
				}
			}
		}
	}
	JOINT LowerBack
	{
		OFFSET 0 0 0
		CHANNELS 3 Zrotation Yrotation Xrotation
		JOINT Spine
		{
			OFFSET -0.04725 2.10352 -0.01215
			CHANNELS 3 Zrotation Yrotation Xrotation
			JOINT Spine1
			{
				OFFSET 0.04471 2.09612 -0.07192
				CHANNELS 3 Zrotation Yrotation Xrotation
				JOINT Neck
				{
					OFFSET 0 0 0
					CHANNELS 3 Zrotation Yrotation Xrotation
					JOINT Neck1
					{
						OFFSET -0.01586 1.38087 0.11506
						CHANNELS 3 Zrotation Yrotation Xrotation
						JOINT Head
						{
							OFFSET -0.01055 1.38869 -0.12115
							CHANNELS 3 Zrotation Yrotation Xrotation
							End Site
							{
								OFFSET -0.00310 1.39537 -0.05348
							}
						}
					}
				}
				JOINT LeftShoulder
				{
					OFFSET 0 0 0
					CHANNELS 3 Zrotation Yrotation Xrotation
					JOINT LeftArm
					{
						OFFSET 2.71932 0.62535 0.37316
						CHANNELS 3 Zrotation Yrotation Xrotation
						JOINT LeftForeArm
						{
							OFFSET 4.47366 -0.00000 0.00000
							CHANNELS 3 Zrotation Yrotation Xrotation
							JOINT LeftHand
							{
								OFFSET 3.19948 -0.00000 -0.00000
								CHANNELS 3 Zrotation Yrotation Xrotation
								JOINT LeftFingerBase
								{
									OFFSET 0 0 0
									CHANNELS 3 Zrotation Yrotation Xrotation
									JOINT LeftHandIndex1
									{
										OFFSET 0.49267 -0.00000 -0.00000
										CHANNELS 3 Zrotation Yrotation Xrotation
										End Site
										{
											OFFSET 0.39720 -0.00000 -0.00000
										}
									}
								}
								JOINT LThumb
								{
									OFFSET 0 0 0
									CHANNELS 3 Zrotation Yrotation Xrotation
									End Site
									{
										OFFSET 0.40327 -0.00000 0.40327
									}
								}
							}
						}
					}
				}
				JOINT RightShoulder
				{
					OFFSET 0 0 0
					CHANNELS 3 Zrotation Yrotation Xrotation
					JOINT RightArm
					{
						OFFSET -2.97334 0.70851 0.47631
						CHANNELS 3 Zrotation Yrotation Xrotation
						JOINT RightForeArm
						{
							OFFSET -4.32690 -0.00000 -0.00000
							CHANNELS 3 Zrotation Yrotation Xrotation
							JOINT RightHand
							{
								OFFSET -3.18960 -0.00000 0.00000
								CHANNELS 3 Zrotation Yrotation Xrotation
								JOINT RightFingerBase
								{
									OFFSET 0 0 0
									CHANNELS 3 Zrotation Yrotation Xrotation
									JOINT RightHandIndex1
									{
										OFFSET -0.46450 -0.00000 -0.00000
										CHANNELS 3 Zrotation Yrotation Xrotation
										End Site
										{
											OFFSET -0.37449 -0.00000 -0.00000
										}
									}
								}
								JOINT RThumb
								{
									OFFSET 0 0 0
									CHANNELS 3 Zrotation Yrotation Xrotation
									End Site
									{
										OFFSET -0.38021 -0.00000 0.38021
									}
								}
							}
						}
					}
				}
			}
		}
	}
}
MOTION
Frames: 13
Frame Time: .0083333
9.5107 20.6327 9.9856 359.3460 -176.5490 370.7770 0.0000 0.0000 0.0000 -30.0769 -6.8669 -8.8413 3.6860 11.7304 34.7848 4.0442 4.6604 -39.8200 2.7698 -10.3127 -29.9955 0.0000 0.0000 0.0000 20.7163 12.9064 -39.4480 -7.4956 -15.7354 50.7248 -0.8769 -9.3857 -23.4541 -3.3657 11.2647 -33.1779 -1.4501 -0.1659 -0.4124 3.1797 -0.3290 1.0712 4.0812 -0.2354 1.3572 -4.2424 -3.0034 -13.4777 1.5388 -5.1915 26.2524 0.4859 -3.1333 10.8225 0.0000 0.0000 0.0000 -2.8335 5.2033 -25.7786 59.6955 -56.2282 -34.0879 -0.0000 0.0000 -14.0138 26.5351 0.9788 0.4887 -7.1250 0.0000 -0.0000 -0.0273 31.0740 0.0093 0.0000 0.0000 0.0000 5.2684 -4.3537 -21.9364 -20.1390 30.8094 -5.6024 0.0000 0.0000 18.7723 -34.0931 -28.9702 18.1516 7.1250 -0.0000 -0.0000 -4.3202 -63.6943 1.9601
9.5253 20.6222 9.9417 359.6560 -176.5320 370.6150 0.0000 0.0000 0.0000 -29.8376 -7.1837 -8.3995 3.7246 11.7846 34.9742 4.1510 4.7672 -40.3574 2.6346 -10.0786 -29.2315 0.0000 0.0000 0.0000 21.2139 12.4526 -39.4027 -7.5669 -15.7913 50.9872 -1.0040 -8.6835 -23.9539 -3.3906 11.3020 -33.3053 -1.2209 -0.1386 -0.4393 3.2367 -0.2993 1.0141 4.0107 -0.2191 1.3103 -4.0931 -2.9792 -13.4819 1.1721 -5.1112 26.3657 0.3378 -3.1322 10.8482 0.0000 0.0000 0.0000 -3.0491 4.8653 -25.8597 54.0169 -54.4925 -29.4141 -0.0000 0.0000 -13.6650 24.4980 2.3680 1.0786 -7.1250 0.0000 -0.0000 -1.6932 32.5784 0.5153 0.0000 0.0000 0.0000 3.4103 -4.2319 -22.5769 -20.1437 30.8151 -5.6048 0.0000 0.0000 18.5981 -33.3477 -28.9272 17.6567 7.1250 -0.0000 -0.0000 -3.3524 -63.4374 1.5003
9.5374 20.6054 9.8889 359.9340 -176.5880 370.4750 0.0000 0.0000 0.0000 -29.6449 -7.4019 -7.9819 3.7615 11.8360 35.1543 4.2635 4.7623 -40.8704 2.5379 -9.9065 -28.6746 0.0000 0.0000 0.0000 21.5972 12.2115 -39.2680 -7.6191 -15.8318 51.1788 -1.0947 -8.1996 -24.3259 -3.4162 11.3401 -33.4357 -1.0952 -0.1065 -0.5098 3.4499 -0.2744 1.0054 4.1612 -0.2127 1.3396 -4.0238 -2.9132 -13.8530 0.5661 -4.8521 26.5922 0.1320 -3.0788 10.9807 0.0000 -0.0000 0.0000 -3.4212 4.7521 -25.7644 49.0646 -52.6112 -25.4290 -0.0000 0.0000 -14.2560 23.1921 3.0421 1.3025 -7.1250 0.0000 -0.0000 -2.7832 33.2793 0.8004 0.0000 -0.0000 0.0000 1.4363 -3.7302 -24.1776 -19.9547 30.5877 -5.5083 0.0000 0.0000 19.0283 -33.2985 -28.9711 17.6486 7.1250 -0.0000 -0.0000 -3.2732 -63.4713 1.4674
9.5439 20.5825 9.8308 360.1860 -176.6650 370.3980 0.0000 0.0000 0.0000 -29.5258 -7.7131 -7.5317 3.7813 11.8636 35.2511 4.3432 4.9103 -41.2891 2.4772 -9.7963 -28.3196 0.0000 0.0000 0.0000 21.8728 12.0721 -39.1429 -7.6679 -15.8695 51.3575 -1.1563 -7.9172 -24.6128 -3.4228 11.3500 -33.4694 -0.9635 -0.0501 -0.6203 3.7303 -0.2222 0.9500 4.3790 -0.1941 1.3415 -3.8354 -2.8444 -14.0818 -0.2497 -4.5506 26.6439 -0.1578 -3.0189 11.0126 -0.0000 0.0000 0.0000 -3.7465 4.7240 -25.5972 44.7121 -50.6266 -22.0159 -0.0000 0.0000 -15.3476 22.8334 3.3683 1.4171 -7.1250 0.0000 -0.0000 -3.0940 33.6224 0.8643 -0.0000 0.0000 0.0000 -0.5130 -3.5474 -25.1811 -19.8037 30.4051 -5.4316 0.0000 0.0000 18.7316 -34.3914 -29.8805 18.8299 7.1250 -0.0000 -0.0000 -4.4252 -64.7771 2.1195
9.5416 20.5673 9.7674 360.3070 -176.6910 370.3880 0.0000 0.0000 0.0000 -29.5820 -8.0642 -7.0678 3.7826 11.8654 35.2573 4.3798 5.2506 -41.5869 2.4517 -9.7496 -28.1697 0.0000 0.0000 0.0000 21.9517 11.8593 -39.1031 -7.7330 -15.9194 51.5953 -1.2505 -7.4480 -25.0235 -3.3621 11.2593 -33.1595 -0.9126 -0.0276 -0.8183 4.0724 -0.2206 0.8836 4.7068 -0.2045 1.3861 -3.7768 -2.8024 -14.1079 -1.0435 -4.2723 26.5455 -0.4140 -2.9820 10.9562 0.0000 0.0000 0.0000 -3.9770 4.7219 -25.4806 40.7061 -48.4827 -18.9663 -0.0000 0.0000 -16.6834 23.1030 3.9020 1.6628 -7.1250 0.0000 -0.0000 -2.9053 34.2102 0.7700 0.0000 0.0000 0.0000 -2.3922 -3.5834 -25.5159 -19.6993 30.2784 -5.3789 0.0000 0.0000 17.9146 -36.6704 -32.1845 21.6330 7.1250 -0.0000 -0.0000 -6.9260 -67.9812 3.8314
9.5313 20.5638 9.6986 360.5000 -176.6630 370.3340 0.0000 0.0000 0.0000 -29.5931 -8.3975 -6.5131 3.7686 11.8459 35.1890 4.3791 5.6805 -41.7558 2.4151 -9.6819 -27.9527 0.0000 0.0000 0.0000 22.1264 11.6389 -38.8868 -7.8155 -15.9818 51.8953 -1.3988 -6.7804 -25.7124 -3.2951 11.1581 -32.8150 -0.7435 -0.0091 -0.9731 4.4865 -0.2397 0.8516 5.0433 -0.2298 1.4437 -3.8478 -2.7839 -14.3274 -1.6868 -4.0427 26.6133 -0.6101 -2.9671 11.0108 0.0000 0.0000 0.0000 -4.0007 4.6912 -25.5095 37.0430 -46.2170 -16.2711 -0.0000 0.0000 -18.1736 23.2623 4.7223 2.0269 -7.1250 0.0000 -0.0000 -2.8264 35.1069 0.6875 0.0000 0.0000 0.0000 -4.0104 -3.5589 -26.0849 -19.4848 30.0167 -5.2712 0.0000 0.0000 17.5183 -37.9926 -33.8550 23.5155 7.1250 -0.0000 -0.0000 -8.4545 -70.2186 5.1066
9.5123 20.5594 9.6261 360.8500 -176.6490 370.2870 0.0000 0.0000 0.0000 -29.4772 -8.7497 -5.9111 3.7404 11.8066 35.0513 4.3805 6.0812 -41.9261 2.3141 -9.4918 -27.3463 0.0000 0.0000 0.0000 22.4769 11.5362 -38.5004 -7.9037 -16.0480 52.2152 -1.5524 -6.2267 -26.4978 -3.2611 11.1061 -32.6386 -0.3412 0.0487 -1.1455 4.9125 -0.2209 0.8097 5.2611 -0.2377 1.4968 -3.7317 -2.7694 -14.6351 -2.3248 -3.8738 26.7878 -0.8500 -2.9658 11.1206 -0.0000 -0.0000 0.0000 -3.7352 4.6934 -25.4985 33.9967 -44.0823 -14.1108 -0.0000 0.0000 -20.0795 23.7716 6.0343 2.6511 -7.1250 0.0000 -0.0000 -2.4936 36.5581 0.5181 -0.0000 -0.0000 0.0000 -5.2023 -3.5857 -26.7226 -19.1681 29.6270 -5.1137 0.0000 0.0000 17.4712 -36.5284 -33.2668 22.1128 7.1250 -0.0000 -0.0000 -6.2955 -69.1137 3.6426
9.4855 20.5405 9.5523 361.0770 -176.6680 370.3170 0.0000 0.0000 0.0000 -29.4849 -8.9409 -5.4218 3.7117 11.7666 34.9113 4.3933 6.3102 -42.0782 2.2339 -9.3371 -26.8557 0.0000 0.0000 0.0000 22.6649 11.5216 -38.2131 -7.9736 -16.0998 52.4677 -1.6004 -6.2845 -26.8758 -3.2152 11.0356 -32.4000 0.0031 0.1011 -1.3436 5.3135 -0.2105 0.7347 5.4867 -0.2500 1.5317 -3.5845 -2.7747 -14.8118 -2.9183 -3.7665 26.9049 -1.0844 -2.9864 11.1846 0.0000 0.0000 0.0000 -3.3504 4.7501 -25.6186 31.4073 -42.0695 -12.3419 -0.0000 0.0000 -21.6511 24.9668 7.1444 3.3141 -7.1250 0.0000 -0.0000 -1.5611 37.8470 0.2750 0.0000 0.0000 0.0000 -6.0227 -3.6392 -27.3088 -18.8376 29.2164 -4.9513 0.0000 0.0000 17.6640 -34.8512 -32.3296 20.4252 7.1250 -0.0000 -0.0000 -4.1342 -67.5771 2.2462
9.4562 20.5166 9.4783 361.0930 -176.6840 370.3780 0.0000 0.0000 0.0000 -29.6463 -8.8791 -5.0807 3.6923 11.7393 34.8158 4.3842 6.3168 -42.0405 2.2193 -9.3087 -26.7657 0.0000 0.0000 0.0000 22.6402 11.5152 -37.9998 -8.0240 -16.1369 52.6492 -1.5813 -6.7702 -27.0340 -3.1726 10.9694 -32.1766 0.1805 0.1408 -1.4326 5.6541 -0.2011 0.6005 5.7448 -0.2591 1.4442 -3.5106 -2.8407 -14.7601 -3.3725 -3.7784 26.8803 -1.2627 -3.0486 11.1546 0.0000 -0.0000 0.0000 -2.8778 4.7335 -26.1869 29.0593 -40.0733 -10.7989 -0.0000 0.0000 -22.0818 26.0877 7.3761 3.5969 -7.1250 0.0000 -0.0000 -0.6162 38.1814 0.1035 0.0000 -0.0000 0.0000 -6.4467 -3.6004 -28.0971 -18.4586 28.7404 -4.7677 0.0000 0.0000 18.1409 -34.2687 -31.9949 19.8501 7.1250 -0.0000 -0.0000 -3.4324 -67.0387 1.8223
9.4249 20.4971 9.4053 361.0090 -176.6790 370.4480 0.0000 0.0000 0.0000 -29.8091 -8.5722 -4.8934 3.6778 11.7189 34.7446 4.3530 6.0901 -41.8078 2.2213 -9.3127 -26.7783 0.0000 0.0000 0.0000 22.5291 11.5534 -37.7434 -8.0678 -16.1689 52.8067 -1.5644 -7.2907 -27.2403 -3.1279 10.8993 -31.9409 0.2522 0.1572 -1.4077 5.9776 -0.2140 0.4548 6.0459 -0.2786 1.2830 -3.4542 -2.9057 -14.6920 -3.8299 -3.7751 26.7637 -1.4330 -3.1010 11.0871 -0.0000 -0.0000 0.0000 -2.4018 4.8618 -26.9183 27.2268 -38.3946 -9.6397 -0.0000 0.0000 -22.4276 27.5917 7.5336 3.9196 -7.1250 0.0000 -0.0000 0.6703 38.4655 -0.1079 -0.0000 -0.0000 0.0000 -6.5587 -3.3709 -29.3307 -18.0474 28.2179 -4.5716 0.0000 0.0000 19.0093 -33.7544 -31.2645 19.1284 7.1250 -0.0000 -0.0000 -3.0190 -66.0956 1.5373
9.3880 20.4808 9.3354 360.8820 -176.6420 370.4980 0.0000 0.0000 0.0000 -29.9494 -8.0232 -4.8029 3.6617 11.6961 34.6654 4.3342 5.6806 -41.5554 2.2350 -9.3394 -26.8628 0.0000 0.0000 0.0000 22.3490 11.6415 -37.4477 -8.1202 -16.2069 52.9945 -1.5344 -7.8389 -27.3849 -3.0703 10.8079 -31.6348 0.3813 0.1664 -1.2744 6.2558 -0.2327 0.3575 6.2668 -0.2999 1.1112 -3.3620 -2.9209 -14.8096 -4.3037 -3.6903 26.7334 -1.6116 -3.1156 11.0886 -0.0000 -0.0000 0.0000 -1.8663 5.0936 -27.6898 25.8336 -37.0439 -8.7872 -0.0000 0.0000 -22.9861 29.7980 7.8879 4.4936 -7.1250 0.0000 -0.0000 2.5698 39.0386 -0.3777 -0.0000 -0.0000 0.0000 -6.3138 -3.1794 -30.5144 -17.7736 27.8663 -4.4429 0.0000 0.0000 19.4805 -33.3239 -31.3695 18.8936 7.1250 -0.0000 -0.0000 -2.3735 -66.0809 1.2076
9.3478 20.4661 9.2668 360.6760 -176.6200 370.5470 0.0000 0.0000 0.0000 -30.1815 -7.4287 -4.7244 3.6466 11.6747 34.5908 4.3276 5.2531 -41.3536 2.2649 -9.3974 -27.0464 0.0000 0.0000 0.0000 22.0522 11.7255 -37.1934 -8.1897 -16.2570 53.2430 -1.5126 -8.3117 -27.5485 -3.0180 10.7242 -31.3553 0.5672 0.1849 -1.0938 6.4242 -0.2247 0.2594 6.3395 -0.3021 0.9082 -3.2198 -2.8972 -14.9164 -4.6936 -3.5942 26.7865 -1.7699 -3.1140 11.1201 0.0000 0.0000 0.0000 -1.1501 5.2209 -28.6137 24.6984 -35.8942 -8.1124 -0.0000 0.0000 -23.4596 32.1845 8.0679 5.0477 -7.1250 0.0000 -0.0000 4.6534 39.4470 -0.6384 0.0000 0.0000 0.0000 -5.6483 -3.2061 -30.9907 -17.6677 27.7296 -4.3935 0.0000 0.0000 19.0370 -33.2051 -32.5563 19.4027 7.1250 -0.0000 -0.0000 -1.6370 -67.3182 0.8793
9.3085 20.4525 9.1963 360.3390 -176.6720 370.7020 0.0000 0.0000 0.0000 -30.5638 -6.8617 -4.7557 3.6386 11.6633 34.5509 4.2852 4.9492 -41.0420 2.3274 -9.5171 -27.4266 0.0000 0.0000 0.0000 21.5668 11.8806 -37.0837 -8.2704 -16.3146 53.5309 -1.5396 -8.5706 -27.9139 -2.8964 10.5255 -30.6958 0.6375 0.1900 -1.0461 6.5173 -0.2254 0.1609 6.3985 -0.3052 0.7804 -3.0993 -2.8756 -14.8392 -5.0074 -3.5242 26.7078 -1.8901 -3.1122 11.0671 -0.0000 -0.0000 0.0000 -0.3147 5.3526 -29.5945 23.8101 -34.9628 -7.5975 -0.0000 0.0000 -24.2320 34.5990 8.0590 5.5238 -7.1250 0.0000 -0.0000 6.7766 39.6520 -0.8980 -0.0000 -0.0000 0.0000 -4.8088 -3.2448 -31.5221 -17.5658 27.5976 -4.3462 0.0000 0.0000 19.3350 -32.8305 -32.6748 19.2048 7.1250 -0.0000 -0.0000 -1.0408 -67.3310 0.5593
